<svg width="1308" height="5294" viewBox="0 0 1308 5294" fill="none" xmlns="http://www.w3.org/2000/svg">
<g clip-path="url(#clip0_192_320)">
<path d="M394 0H265V129H394V0Z" fill="url(#paint0_linear_192_320)" fill-opacity="0.03"/>
<path d="M654 129H525V258H654V129Z" fill="url(#paint1_linear_192_320)" fill-opacity="0.02"/>
<path d="M654 520H783V649H654V520Z" fill="url(#paint2_linear_192_320)" fill-opacity="0.03"/>
<path d="M1301 0H1172V129H1301V0Z" fill="url(#paint3_linear_192_320)" fill-opacity="0.02"/>
<path d="M1173 780H1044V909H1173V780Z" fill="url(#paint4_linear_192_320)" fill-opacity="0.03"/>
<path d="M6 261H135V390H6V261Z" fill="url(#paint5_linear_192_320)" fill-opacity="0.02"/>
<path d="M1178 391H1307V520H1178V391Z" fill="url(#paint6_linear_192_320)" fill-opacity="0.02"/>
<path d="M135 650.5H264V779.5H135V650.5Z" fill="url(#paint7_linear_192_320)" fill-opacity="0.03"/>
<path d="M525 783H396V912H525V783Z" fill="url(#paint8_linear_192_320)" fill-opacity="0.02"/>
<path d="M395 1026H266V1155H395V1026Z" fill="url(#paint9_linear_192_320)" fill-opacity="0.03"/>
<path d="M655 1152H526V1281H655V1152Z" fill="url(#paint10_linear_192_320)" fill-opacity="0.02"/>
<path d="M655 1543H784V1672H655V1543Z" fill="url(#paint11_linear_192_320)" fill-opacity="0.03"/>
<path d="M1302 1023H1173V1152H1302V1023Z" fill="url(#paint12_linear_192_320)" fill-opacity="0.02"/>
<path d="M1167 1803H1038V1932H1167V1803Z" fill="url(#paint13_linear_192_320)" fill-opacity="0.03"/>
<path d="M0 1284H129V1413H0V1284Z" fill="url(#paint14_linear_192_320)" fill-opacity="0.02"/>
<path d="M1172 1414H1301V1543H1172V1414Z" fill="url(#paint15_linear_192_320)" fill-opacity="0.02"/>
<path d="M129 1673.5H258V1802.5H129V1673.5Z" fill="url(#paint16_linear_192_320)" fill-opacity="0.03"/>
<path d="M519 1806H390V1935H519V1806Z" fill="url(#paint17_linear_192_320)" fill-opacity="0.02"/>
<path d="M394 2044H265V2173H394V2044Z" fill="url(#paint18_linear_192_320)" fill-opacity="0.03"/>
<path d="M654 2173H525V2302H654V2173Z" fill="url(#paint19_linear_192_320)" fill-opacity="0.02"/>
<path d="M654 2564H783V2693H654V2564Z" fill="url(#paint20_linear_192_320)" fill-opacity="0.03"/>
<path d="M1301 2044H1172V2173H1301V2044Z" fill="url(#paint21_linear_192_320)" fill-opacity="0.02"/>
<path d="M1173 2824H1044V2953H1173V2824Z" fill="url(#paint22_linear_192_320)" fill-opacity="0.03"/>
<path d="M6 2305H135V2434H6V2305Z" fill="url(#paint23_linear_192_320)" fill-opacity="0.02"/>
<path d="M1178 2435H1307V2564H1178V2435Z" fill="url(#paint24_linear_192_320)" fill-opacity="0.02"/>
<path d="M135 2694.5H264V2823.5H135V2694.5Z" fill="url(#paint25_linear_192_320)" fill-opacity="0.03"/>
<path d="M522 2824H393V2953H522V2824Z" fill="url(#paint26_linear_192_320)" fill-opacity="0.02"/>
<path d="M395 3086H266V3215H395V3086Z" fill="url(#paint27_linear_192_320)" fill-opacity="0.03"/>
<path d="M655 3215H526V3344H655V3215Z" fill="url(#paint28_linear_192_320)" fill-opacity="0.02"/>
<path d="M655 3606H784V3735H655V3606Z" fill="url(#paint29_linear_192_320)" fill-opacity="0.03"/>
<path d="M1302 3086H1173V3215H1302V3086Z" fill="url(#paint30_linear_192_320)" fill-opacity="0.02"/>
<path d="M1174 3866H1045V3995H1174V3866Z" fill="url(#paint31_linear_192_320)" fill-opacity="0.03"/>
<path d="M7 3347H136V3476H7V3347Z" fill="url(#paint32_linear_192_320)" fill-opacity="0.02"/>
<path d="M1179 3477H1308V3606H1179V3477Z" fill="url(#paint33_linear_192_320)" fill-opacity="0.02"/>
<path d="M136 3736.5H265V3865.5H136V3736.5Z" fill="url(#paint34_linear_192_320)" fill-opacity="0.03"/>
<path d="M526 3869H397V3998H526V3869Z" fill="url(#paint35_linear_192_320)" fill-opacity="0.02"/>
<path d="M389 4109H260V4238H389V4109Z" fill="url(#paint36_linear_192_320)" fill-opacity="0.03"/>
<path d="M649 4238H520V4367H649V4238Z" fill="url(#paint37_linear_192_320)" fill-opacity="0.02"/>
<path d="M649 4629H778V4758H649V4629Z" fill="url(#paint38_linear_192_320)" fill-opacity="0.03"/>
<path d="M1296 4109H1167V4238H1296V4109Z" fill="url(#paint39_linear_192_320)" fill-opacity="0.02"/>
<path d="M1168 4889H1039V5018H1168V4889Z" fill="url(#paint40_linear_192_320)" fill-opacity="0.03"/>
<path d="M1 4370H130V4499H1V4370Z" fill="url(#paint41_linear_192_320)" fill-opacity="0.02"/>
<path d="M1173 4500H1302V4629H1173V4500Z" fill="url(#paint42_linear_192_320)" fill-opacity="0.02"/>
<path d="M130 4759.5H259V4888.5H130V4759.5Z" fill="url(#paint43_linear_192_320)" fill-opacity="0.03"/>
<path d="M520 4892H391V5021H520V4892Z" fill="url(#paint44_linear_192_320)" fill-opacity="0.02"/>
<path d="M395 5130H266V5259H395V5130Z" fill="url(#paint45_linear_192_320)" fill-opacity="0.03"/>
<path d="M655 5259H526V5388H655V5259Z" fill="url(#paint46_linear_192_320)" fill-opacity="0.02"/>
<path d="M1302 5130H1173V5259H1302V5130Z" fill="url(#paint47_linear_192_320)" fill-opacity="0.02"/>
</g>
<defs>
<linearGradient id="paint0_linear_192_320" x1="329.5" y1="0" x2="329.5" y2="129" gradientUnits="userSpaceOnUse">
<stop stop-color="white" stop-opacity="0.2"/>
<stop offset="1" stop-color="white"/>
</linearGradient>
<linearGradient id="paint1_linear_192_320" x1="589.5" y1="129" x2="589.5" y2="258" gradientUnits="userSpaceOnUse">
<stop stop-color="white" stop-opacity="0.2"/>
<stop offset="1" stop-color="white"/>
</linearGradient>
<linearGradient id="paint2_linear_192_320" x1="718.5" y1="532" x2="718.5" y2="661" gradientUnits="userSpaceOnUse">
<stop stop-color="white" stop-opacity="0.2"/>
<stop offset="1" stop-color="white"/>
</linearGradient>
<linearGradient id="paint3_linear_192_320" x1="1236.5" y1="0" x2="1236.5" y2="129" gradientUnits="userSpaceOnUse">
<stop stop-color="white" stop-opacity="0.2"/>
<stop offset="1" stop-color="white"/>
</linearGradient>
<linearGradient id="paint4_linear_192_320" x1="1108.5" y1="780" x2="1108.5" y2="909" gradientUnits="userSpaceOnUse">
<stop stop-color="white" stop-opacity="0.2"/>
<stop offset="1" stop-color="white"/>
</linearGradient>
<linearGradient id="paint5_linear_192_320" x1="70.5" y1="272" x2="70.5" y2="401" gradientUnits="userSpaceOnUse">
<stop stop-color="white" stop-opacity="0.2"/>
<stop offset="1" stop-color="white"/>
</linearGradient>
<linearGradient id="paint6_linear_192_320" x1="1242.5" y1="391" x2="1242.5" y2="520" gradientUnits="userSpaceOnUse">
<stop stop-color="white" stop-opacity="0.2"/>
<stop offset="1" stop-color="white"/>
</linearGradient>
<linearGradient id="paint7_linear_192_320" x1="199.5" y1="661" x2="199.5" y2="790" gradientUnits="userSpaceOnUse">
<stop stop-color="white" stop-opacity="0.2"/>
<stop offset="1" stop-color="white"/>
</linearGradient>
<linearGradient id="paint8_linear_192_320" x1="460.5" y1="783" x2="460.5" y2="912" gradientUnits="userSpaceOnUse">
<stop stop-color="white" stop-opacity="0.2"/>
<stop offset="1" stop-color="white"/>
</linearGradient>
<linearGradient id="paint9_linear_192_320" x1="330.5" y1="1026" x2="330.5" y2="1155" gradientUnits="userSpaceOnUse">
<stop stop-color="white" stop-opacity="0.2"/>
<stop offset="1" stop-color="white"/>
</linearGradient>
<linearGradient id="paint10_linear_192_320" x1="590.5" y1="1152" x2="590.5" y2="1281" gradientUnits="userSpaceOnUse">
<stop stop-color="white" stop-opacity="0.2"/>
<stop offset="1" stop-color="white"/>
</linearGradient>
<linearGradient id="paint11_linear_192_320" x1="719.5" y1="1555" x2="719.5" y2="1684" gradientUnits="userSpaceOnUse">
<stop stop-color="white" stop-opacity="0.2"/>
<stop offset="1" stop-color="white"/>
</linearGradient>
<linearGradient id="paint12_linear_192_320" x1="1237.5" y1="1023" x2="1237.5" y2="1152" gradientUnits="userSpaceOnUse">
<stop stop-color="white" stop-opacity="0.2"/>
<stop offset="1" stop-color="white"/>
</linearGradient>
<linearGradient id="paint13_linear_192_320" x1="1102.5" y1="1803" x2="1102.5" y2="1932" gradientUnits="userSpaceOnUse">
<stop stop-color="white" stop-opacity="0.2"/>
<stop offset="1" stop-color="white"/>
</linearGradient>
<linearGradient id="paint14_linear_192_320" x1="64.5" y1="1295" x2="64.5" y2="1424" gradientUnits="userSpaceOnUse">
<stop stop-color="white" stop-opacity="0.2"/>
<stop offset="1" stop-color="white"/>
</linearGradient>
<linearGradient id="paint15_linear_192_320" x1="1236.5" y1="1414" x2="1236.5" y2="1543" gradientUnits="userSpaceOnUse">
<stop stop-color="white" stop-opacity="0.2"/>
<stop offset="1" stop-color="white"/>
</linearGradient>
<linearGradient id="paint16_linear_192_320" x1="193.5" y1="1684" x2="193.5" y2="1813" gradientUnits="userSpaceOnUse">
<stop stop-color="white" stop-opacity="0.2"/>
<stop offset="1" stop-color="white"/>
</linearGradient>
<linearGradient id="paint17_linear_192_320" x1="454.5" y1="1806" x2="454.5" y2="1935" gradientUnits="userSpaceOnUse">
<stop stop-color="white" stop-opacity="0.2"/>
<stop offset="1" stop-color="white"/>
</linearGradient>
<linearGradient id="paint18_linear_192_320" x1="329.5" y1="2044" x2="329.5" y2="2173" gradientUnits="userSpaceOnUse">
<stop stop-color="white" stop-opacity="0.2"/>
<stop offset="1" stop-color="white"/>
</linearGradient>
<linearGradient id="paint19_linear_192_320" x1="589.5" y1="2173" x2="589.5" y2="2302" gradientUnits="userSpaceOnUse">
<stop stop-color="white" stop-opacity="0.2"/>
<stop offset="1" stop-color="white"/>
</linearGradient>
<linearGradient id="paint20_linear_192_320" x1="718.5" y1="2576" x2="718.5" y2="2705" gradientUnits="userSpaceOnUse">
<stop stop-color="white" stop-opacity="0.2"/>
<stop offset="1" stop-color="white"/>
</linearGradient>
<linearGradient id="paint21_linear_192_320" x1="1236.5" y1="2044" x2="1236.5" y2="2173" gradientUnits="userSpaceOnUse">
<stop stop-color="white" stop-opacity="0.2"/>
<stop offset="1" stop-color="white"/>
</linearGradient>
<linearGradient id="paint22_linear_192_320" x1="1108.5" y1="2824" x2="1108.5" y2="2953" gradientUnits="userSpaceOnUse">
<stop stop-color="white" stop-opacity="0.2"/>
<stop offset="1" stop-color="white"/>
</linearGradient>
<linearGradient id="paint23_linear_192_320" x1="70.5" y1="2316" x2="70.5" y2="2445" gradientUnits="userSpaceOnUse">
<stop stop-color="white" stop-opacity="0.2"/>
<stop offset="1" stop-color="white"/>
</linearGradient>
<linearGradient id="paint24_linear_192_320" x1="1242.5" y1="2435" x2="1242.5" y2="2564" gradientUnits="userSpaceOnUse">
<stop stop-color="white" stop-opacity="0.2"/>
<stop offset="1" stop-color="white"/>
</linearGradient>
<linearGradient id="paint25_linear_192_320" x1="199.5" y1="2705" x2="199.5" y2="2834" gradientUnits="userSpaceOnUse">
<stop stop-color="white" stop-opacity="0.2"/>
<stop offset="1" stop-color="white"/>
</linearGradient>
<linearGradient id="paint26_linear_192_320" x1="457.5" y1="2824" x2="457.5" y2="2953" gradientUnits="userSpaceOnUse">
<stop stop-color="white" stop-opacity="0.2"/>
<stop offset="1" stop-color="white"/>
</linearGradient>
<linearGradient id="paint27_linear_192_320" x1="330.5" y1="3086" x2="330.5" y2="3215" gradientUnits="userSpaceOnUse">
<stop stop-color="white" stop-opacity="0.2"/>
<stop offset="1" stop-color="white"/>
</linearGradient>
<linearGradient id="paint28_linear_192_320" x1="590.5" y1="3215" x2="590.5" y2="3344" gradientUnits="userSpaceOnUse">
<stop stop-color="white" stop-opacity="0.2"/>
<stop offset="1" stop-color="white"/>
</linearGradient>
<linearGradient id="paint29_linear_192_320" x1="719.5" y1="3618" x2="719.5" y2="3747" gradientUnits="userSpaceOnUse">
<stop stop-color="white" stop-opacity="0.2"/>
<stop offset="1" stop-color="white"/>
</linearGradient>
<linearGradient id="paint30_linear_192_320" x1="1237.5" y1="3086" x2="1237.5" y2="3215" gradientUnits="userSpaceOnUse">
<stop stop-color="white" stop-opacity="0.2"/>
<stop offset="1" stop-color="white"/>
</linearGradient>
<linearGradient id="paint31_linear_192_320" x1="1109.5" y1="3866" x2="1109.5" y2="3995" gradientUnits="userSpaceOnUse">
<stop stop-color="white" stop-opacity="0.2"/>
<stop offset="1" stop-color="white"/>
</linearGradient>
<linearGradient id="paint32_linear_192_320" x1="71.5" y1="3358" x2="71.5" y2="3487" gradientUnits="userSpaceOnUse">
<stop stop-color="white" stop-opacity="0.2"/>
<stop offset="1" stop-color="white"/>
</linearGradient>
<linearGradient id="paint33_linear_192_320" x1="1243.5" y1="3477" x2="1243.5" y2="3606" gradientUnits="userSpaceOnUse">
<stop stop-color="white" stop-opacity="0.2"/>
<stop offset="1" stop-color="white"/>
</linearGradient>
<linearGradient id="paint34_linear_192_320" x1="200.5" y1="3747" x2="200.5" y2="3876" gradientUnits="userSpaceOnUse">
<stop stop-color="white" stop-opacity="0.2"/>
<stop offset="1" stop-color="white"/>
</linearGradient>
<linearGradient id="paint35_linear_192_320" x1="461.5" y1="3869" x2="461.5" y2="3998" gradientUnits="userSpaceOnUse">
<stop stop-color="white" stop-opacity="0.2"/>
<stop offset="1" stop-color="white"/>
</linearGradient>
<linearGradient id="paint36_linear_192_320" x1="324.5" y1="4109" x2="324.5" y2="4238" gradientUnits="userSpaceOnUse">
<stop stop-color="white" stop-opacity="0.2"/>
<stop offset="1" stop-color="white"/>
</linearGradient>
<linearGradient id="paint37_linear_192_320" x1="584.5" y1="4238" x2="584.5" y2="4367" gradientUnits="userSpaceOnUse">
<stop stop-color="white" stop-opacity="0.2"/>
<stop offset="1" stop-color="white"/>
</linearGradient>
<linearGradient id="paint38_linear_192_320" x1="713.5" y1="4641" x2="713.5" y2="4770" gradientUnits="userSpaceOnUse">
<stop stop-color="white" stop-opacity="0.2"/>
<stop offset="1" stop-color="white"/>
</linearGradient>
<linearGradient id="paint39_linear_192_320" x1="1231.5" y1="4109" x2="1231.5" y2="4238" gradientUnits="userSpaceOnUse">
<stop stop-color="white" stop-opacity="0.2"/>
<stop offset="1" stop-color="white"/>
</linearGradient>
<linearGradient id="paint40_linear_192_320" x1="1103.5" y1="4889" x2="1103.5" y2="5018" gradientUnits="userSpaceOnUse">
<stop stop-color="white" stop-opacity="0.2"/>
<stop offset="1" stop-color="white"/>
</linearGradient>
<linearGradient id="paint41_linear_192_320" x1="65.5" y1="4381" x2="65.5" y2="4510" gradientUnits="userSpaceOnUse">
<stop stop-color="white" stop-opacity="0.2"/>
<stop offset="1" stop-color="white"/>
</linearGradient>
<linearGradient id="paint42_linear_192_320" x1="1237.5" y1="4500" x2="1237.5" y2="4629" gradientUnits="userSpaceOnUse">
<stop stop-color="white" stop-opacity="0.2"/>
<stop offset="1" stop-color="white"/>
</linearGradient>
<linearGradient id="paint43_linear_192_320" x1="194.5" y1="4770" x2="194.5" y2="4899" gradientUnits="userSpaceOnUse">
<stop stop-color="white" stop-opacity="0.2"/>
<stop offset="1" stop-color="white"/>
</linearGradient>
<linearGradient id="paint44_linear_192_320" x1="455.5" y1="4892" x2="455.5" y2="5021" gradientUnits="userSpaceOnUse">
<stop stop-color="white" stop-opacity="0.2"/>
<stop offset="1" stop-color="white"/>
</linearGradient>
<linearGradient id="paint45_linear_192_320" x1="330.5" y1="5130" x2="330.5" y2="5259" gradientUnits="userSpaceOnUse">
<stop stop-color="white" stop-opacity="0.2"/>
<stop offset="1" stop-color="white"/>
</linearGradient>
<linearGradient id="paint46_linear_192_320" x1="590.5" y1="5259" x2="590.5" y2="5388" gradientUnits="userSpaceOnUse">
<stop stop-color="white" stop-opacity="0.2"/>
<stop offset="1" stop-color="white"/>
</linearGradient>
<linearGradient id="paint47_linear_192_320" x1="1237.5" y1="5130" x2="1237.5" y2="5259" gradientUnits="userSpaceOnUse">
<stop stop-color="white" stop-opacity="0.2"/>
<stop offset="1" stop-color="white"/>
</linearGradient>
<clipPath id="clip0_192_320">
<rect width="1308" height="5294" fill="white"/>
</clipPath>
</defs>
</svg>
