<svg width="250" height="54" viewBox="0 0 250 54" fill="none" xmlns="http://www.w3.org/2000/svg">
<path d="M78.5709 36.2512L78.3527 31.8492L91.7042 18.4977H96.8702L78.5709 36.2512ZM75.2967 43.9639V18.4977H79.2258V43.9639H75.2967ZM92.1772 43.9639L82.4273 30.9397L85.3377 28.4295L97.0885 43.9639H92.1772ZM100.712 43.9639V24.8642H104.46V28.7933L103.805 29.2298C104.047 28.381 104.52 27.6049 105.223 26.9015C105.927 26.1739 106.764 25.5918 107.734 25.1553C108.704 24.6944 109.698 24.464 110.717 24.464C112.172 24.464 113.385 24.7551 114.355 25.3372C115.325 25.895 116.053 26.756 116.538 27.9202C117.023 29.0843 117.265 30.5517 117.265 32.3222V43.9639H113.518V32.5768C113.518 31.4854 113.373 30.588 113.082 29.8847C112.791 29.1571 112.342 28.6356 111.736 28.3203C111.129 27.9808 110.377 27.8353 109.48 27.8838C108.752 27.8838 108.085 28.005 107.479 28.2476C106.873 28.4659 106.339 28.7812 105.878 29.1935C105.442 29.6058 105.09 30.0908 104.823 30.6487C104.581 31.1823 104.46 31.7643 104.46 32.3949V43.9639H102.604C102.289 43.9639 101.974 43.9639 101.658 43.9639C101.343 43.9639 101.028 43.9639 100.712 43.9639ZM130.934 44.3277C129.067 44.3277 127.393 43.9032 125.914 43.0544C124.459 42.1812 123.307 41.0049 122.458 39.5255C121.609 38.0218 121.184 36.3119 121.184 34.3958C121.184 32.4798 121.609 30.7821 122.458 29.3026C123.307 27.7989 124.459 26.6226 125.914 25.7737C127.393 24.9006 129.067 24.464 130.934 24.464C132.778 24.464 134.427 24.9006 135.882 25.7737C137.362 26.6226 138.526 27.7989 139.375 29.3026C140.224 30.7821 140.648 32.4798 140.648 34.3958C140.648 36.3119 140.224 38.0218 139.375 39.5255C138.526 41.0049 137.362 42.1812 135.882 43.0544C134.427 43.9032 132.778 44.3277 130.934 44.3277ZM130.934 40.9079C132.074 40.9079 133.093 40.629 133.99 40.0712C134.888 39.4891 135.591 38.713 136.1 37.7428C136.61 36.7484 136.852 35.6328 136.828 34.3958C136.852 33.1347 136.61 32.019 136.1 31.0489C135.591 30.0545 134.888 29.2784 133.99 28.7205C133.093 28.1627 132.074 27.8838 130.934 27.8838C129.794 27.8838 128.764 28.1748 127.842 28.7569C126.945 29.3147 126.241 30.0908 125.732 31.0852C125.223 32.0554 124.98 33.1589 125.004 34.3958C124.98 35.6328 125.223 36.7484 125.732 37.7428C126.241 38.713 126.945 39.4891 127.842 40.0712C128.764 40.629 129.794 40.9079 130.934 40.9079ZM148.714 43.9639L142.201 24.8642L145.985 24.8278L150.642 39.1253L149.805 39.0525L154.862 27.8838H157.117L162.211 39.0889L161.228 39.1617L165.921 24.8642H169.705L163.266 43.9639H160.683L155.371 31.8128L156.208 31.922L151.26 43.9639H148.714ZM172.317 43.9639V40.8352L182.176 27.6655V28.1021H172.317V24.8642H186.251V27.9202L176.537 40.9079L176.392 40.726H186.469V43.9639H172.317ZM193.941 52.3313L197.797 43.4182L197.834 46.4013L188.302 24.8642H192.668L198.634 38.907C198.755 39.1495 198.901 39.5255 199.07 40.0348C199.24 40.5199 199.386 41.0049 199.507 41.49L198.561 41.7083C198.755 41.199 198.937 40.6896 199.107 40.1803C199.301 39.671 199.483 39.1617 199.653 38.6523L204.637 24.8642H209.075L201.217 43.9639L197.979 52.3313H193.941ZM211.95 44.3641C211.149 44.3641 210.531 44.1336 210.094 43.6728C209.658 43.1878 209.439 42.5087 209.439 41.6355C209.439 40.8352 209.67 40.1803 210.131 39.671C210.591 39.1617 211.198 38.907 211.95 38.907C212.75 38.907 213.368 39.1495 213.805 39.6346C214.242 40.0954 214.46 40.7624 214.46 41.6355C214.46 42.4359 214.229 43.0907 213.769 43.6001C213.308 44.1094 212.701 44.3641 211.95 44.3641ZM226.048 44.3277C224.472 44.3277 223.029 43.8911 221.719 43.018C220.434 42.1449 219.403 40.9564 218.627 39.4527C217.851 37.949 217.463 36.2512 217.463 34.3595C217.463 32.4434 217.851 30.7457 218.627 29.2662C219.427 27.7625 220.494 26.5862 221.828 25.7373C223.187 24.8885 224.702 24.464 226.376 24.464C227.37 24.464 228.28 24.6095 229.104 24.9006C229.929 25.1916 230.644 25.6039 231.251 26.1375C231.881 26.6468 232.391 27.2411 232.779 27.9202C233.191 28.5993 233.446 29.3269 233.543 30.103L232.706 29.8119V24.8642H236.49V43.9639H232.706V39.4163L233.579 39.1617C233.434 39.8165 233.13 40.4592 232.67 41.0898C232.233 41.6962 231.663 42.2419 230.96 42.7269C230.281 43.212 229.517 43.6001 228.668 43.8911C227.843 44.1821 226.97 44.3277 226.048 44.3277ZM227.031 40.8715C228.171 40.8715 229.177 40.5926 230.05 40.0348C230.923 39.477 231.602 38.713 232.088 37.7428C232.597 36.7484 232.852 35.6207 232.852 34.3595C232.852 33.1225 232.597 32.019 232.088 31.0489C231.602 30.0787 230.923 29.3147 230.05 28.7569C229.177 28.1991 228.171 27.9202 227.031 27.9202C225.915 27.9202 224.921 28.1991 224.048 28.7569C223.199 29.3147 222.52 30.0787 222.01 31.0489C221.525 32.019 221.283 33.1225 221.283 34.3595C221.283 35.6207 221.525 36.7484 222.01 37.7428C222.52 38.713 223.199 39.477 224.048 40.0348C224.921 40.5926 225.915 40.8715 227.031 40.8715ZM242.34 43.9639V24.8642H246.087V43.9639H242.34ZM244.159 20.6441C243.359 20.6441 242.74 20.4379 242.304 20.0256C241.867 19.6133 241.649 19.0312 241.649 18.2794C241.649 17.576 241.867 17.0061 242.304 16.5695C242.764 16.1329 243.383 15.9147 244.159 15.9147C244.959 15.9147 245.578 16.1208 246.014 16.5331C246.451 16.9454 246.669 17.5275 246.669 18.2794C246.669 18.9827 246.439 19.5527 245.978 19.9893C245.541 20.4258 244.935 20.6441 244.159 20.6441Z" fill="url(#paint0_linear_246_101)"/>
<path opacity="0.945" fill-rule="evenodd" clip-rule="evenodd" d="M13.9534 1.41124C16.7913 1.30457 17.8888 2.62753 17.2458 5.38009C17.1238 5.55417 17.0019 5.72823 16.8799 5.90231C18.5824 8.93938 20.3243 11.9508 22.1059 14.9367C21.4091 15.0063 20.7124 15.0063 20.0155 14.9367C18.4519 12.2819 16.9016 9.6186 15.3644 6.94674C12.762 6.82237 11.7168 5.49942 12.2288 2.97789C12.6283 2.24724 13.2031 1.72502 13.9534 1.41124Z" fill="url(#paint1_linear_246_101)"/>
<path opacity="0.945" fill-rule="evenodd" clip-rule="evenodd" d="M37.8885 1.41093C39.9305 1.17241 41.115 2.06017 41.4421 4.07424C41.1774 6.04411 40.045 7.00151 38.0452 6.94643C36.5081 9.61829 34.9577 12.2816 33.3941 14.9364C32.6973 15.006 32.0005 15.006 31.3037 14.9364C33.0854 11.9505 34.8273 8.93907 36.5297 5.902C35.616 4.51631 35.7205 3.21076 36.8433 1.98537C37.1847 1.76294 37.5331 1.57146 37.8885 1.41093Z" fill="url(#paint2_linear_246_101)"/>
<path opacity="0.989" fill-rule="evenodd" clip-rule="evenodd" d="M11.6543 16.5544C21.6883 16.537 31.7222 16.5544 41.756 16.6066C43.0571 16.708 44.0848 17.2825 44.8393 18.3299C45.1359 18.8179 45.3449 19.3401 45.4665 19.8966C45.5362 27.1032 45.5362 34.3098 45.4665 41.5164C45.0892 43.2164 44.0615 44.313 42.3831 44.8063C36.0074 44.8411 29.6317 44.876 23.256 44.9108C21.0643 47.275 18.8346 49.6076 16.5667 51.9085C16.2047 51.9938 15.8562 51.9589 15.5215 51.804C15.4561 51.7257 15.4039 51.6386 15.3648 51.5429C15.3125 49.315 15.2951 47.087 15.3125 44.8586C13.8836 44.876 12.4552 44.8586 11.0272 44.8063C9.34886 44.313 8.32108 43.2164 7.94386 41.5164C7.87418 34.3098 7.87418 27.1032 7.94386 19.8966C8.26605 18.5312 9.04994 17.539 10.2956 16.9199C10.7513 16.7546 11.2043 16.6327 11.6543 16.5544ZM19.3888 23.2388C21.5454 23.183 22.5384 24.2274 22.3676 26.3721C21.5767 28.1514 20.3051 28.6214 18.5526 27.7821C17.4393 26.8295 17.2129 25.6981 17.8732 24.3876C18.2764 23.8621 18.7815 23.4791 19.3888 23.2388ZM32.8718 23.2388C35.0285 23.183 36.0214 24.2274 35.8506 26.3721C35.0597 28.1514 33.7881 28.6214 32.0357 27.7821C30.9211 26.8326 30.6946 25.7011 31.3563 24.3876C31.7594 23.8621 32.2646 23.4791 32.8718 23.2388ZM20.643 34.2053C24.545 34.2053 28.4472 34.2053 32.3492 34.2053C31.8454 37.6158 29.877 39.461 26.4439 39.7408C23.5878 39.6014 21.7064 38.1741 20.7998 35.4586C20.679 35.0494 20.6267 34.6317 20.643 34.2053Z" fill="url(#paint3_linear_246_101)"/>
<path opacity="0.96" fill-rule="evenodd" clip-rule="evenodd" d="M2.76973 25.9551C3.95428 25.9551 5.13884 25.9551 6.3234 25.9551C6.3234 29.4365 6.3234 32.918 6.3234 36.3994C5.10351 36.4169 3.88411 36.3994 2.66521 36.3472C2.36412 36.2165 2.1725 35.9903 2.09035 35.6683C2.02067 32.7091 2.02067 29.7498 2.09035 26.7906C2.22379 26.4315 2.45024 26.153 2.76973 25.9551Z" fill="url(#paint4_linear_246_101)"/>
<path opacity="0.943" fill-rule="evenodd" clip-rule="evenodd" d="M47.0866 25.9548C48.2717 25.9373 49.4563 25.9548 50.6403 26.007C50.9806 26.1728 51.2071 26.4339 51.3197 26.7903C51.3894 29.7495 51.3894 32.7088 51.3197 35.668C51.1937 36.1252 50.8975 36.3688 50.4313 36.3991C50.4487 40.7511 50.4313 45.1029 50.379 49.4545C50.3548 49.7927 50.198 50.0538 49.9087 50.2379C44.4036 50.2553 38.899 50.3075 33.3945 50.3945C33.0706 50.9108 32.6177 51.2415 32.0358 51.3868C30.5377 51.4564 29.0395 51.4564 27.5414 51.3868C26.5772 51.1019 26.0546 50.4579 25.9736 49.4545C26.0432 48.2538 26.6704 47.5749 27.855 47.4179C29.144 47.3482 30.4332 47.3482 31.7222 47.4179C32.4819 47.449 33.0393 47.7971 33.3945 48.4623C38.4462 48.5146 43.498 48.532 48.5499 48.5146C48.5499 44.476 48.5499 40.4376 48.5499 36.3991C48.0621 36.3991 47.5744 36.3991 47.0866 36.3991C47.0866 32.9177 47.0866 29.4362 47.0866 25.9548Z" fill="url(#paint5_linear_246_101)"/>
<defs>
<linearGradient id="paint0_linear_246_101" x1="138.622" y1="19.2426" x2="248.092" y2="19.6813" gradientUnits="userSpaceOnUse">
<stop stop-color="#CDCFF4"/>
<stop offset="1" stop-color="#FBD0BF"/>
</linearGradient>
<linearGradient id="paint1_linear_246_101" x1="15.856" y1="4.73326" x2="21.999" y2="4.73795" gradientUnits="userSpaceOnUse">
<stop stop-color="#CDCFF4"/>
<stop offset="1" stop-color="#FBD0BF"/>
</linearGradient>
<linearGradient id="paint2_linear_246_101" x1="35.1079" y1="4.70886" x2="41.3337" y2="4.71366" gradientUnits="userSpaceOnUse">
<stop stop-color="#CDCFF4"/>
<stop offset="1" stop-color="#FBD0BF"/>
</linearGradient>
<linearGradient id="paint3_linear_246_101" x1="22.0102" y1="25.2223" x2="45.1165" y2="25.2477" gradientUnits="userSpaceOnUse">
<stop stop-color="#CDCFF4"/>
<stop offset="1" stop-color="#FBD0BF"/>
</linearGradient>
<linearGradient id="paint4_linear_246_101" x1="3.64603" y1="28.5155" x2="6.27759" y2="28.5167" gradientUnits="userSpaceOnUse">
<stop stop-color="#CDCFF4"/>
<stop offset="1" stop-color="#FBD0BF"/>
</linearGradient>
<linearGradient id="paint5_linear_246_101" x1="35.5037" y1="32.1935" x2="51.1004" y2="32.2096" gradientUnits="userSpaceOnUse">
<stop stop-color="#CDCFF4"/>
<stop offset="1" stop-color="#FBD0BF"/>
</linearGradient>
</defs>
</svg>
