<svg width="54" height="54" viewBox="0 0 54 54" fill="none" xmlns="http://www.w3.org/2000/svg">
<path opacity="0.945" fill-rule="evenodd" clip-rule="evenodd" d="M13.9534 1.41124C16.7913 1.30457 17.8888 2.62753 17.2458 5.38009C17.1238 5.55417 17.0019 5.72823 16.8799 5.90231C18.5824 8.93938 20.3243 11.9508 22.1059 14.9367C21.4091 15.0063 20.7124 15.0063 20.0155 14.9367C18.4519 12.2819 16.9016 9.6186 15.3644 6.94674C12.762 6.82237 11.7168 5.49942 12.2288 2.97789C12.6283 2.24724 13.2031 1.72502 13.9534 1.41124Z" fill="url(#paint0_linear_278_58)"/>
<path opacity="0.945" fill-rule="evenodd" clip-rule="evenodd" d="M37.8885 1.41093C39.9305 1.17241 41.115 2.06017 41.4421 4.07424C41.1774 6.04411 40.045 7.00151 38.0452 6.94643C36.5081 9.61829 34.9577 12.2816 33.3941 14.9364C32.6973 15.006 32.0005 15.006 31.3037 14.9364C33.0854 11.9505 34.8273 8.93907 36.5297 5.902C35.616 4.51631 35.7205 3.21076 36.8433 1.98537C37.1847 1.76294 37.5331 1.57146 37.8885 1.41093Z" fill="url(#paint1_linear_278_58)"/>
<path opacity="0.989" fill-rule="evenodd" clip-rule="evenodd" d="M11.6543 16.5544C21.6883 16.537 31.7222 16.5544 41.756 16.6066C43.0571 16.708 44.0848 17.2825 44.8393 18.3299C45.1359 18.8179 45.3449 19.3401 45.4665 19.8966C45.5362 27.1032 45.5362 34.3098 45.4665 41.5164C45.0892 43.2164 44.0615 44.313 42.3831 44.8063C36.0074 44.8411 29.6317 44.876 23.256 44.9108C21.0643 47.275 18.8346 49.6076 16.5667 51.9085C16.2047 51.9938 15.8562 51.9589 15.5215 51.804C15.4561 51.7257 15.4039 51.6386 15.3648 51.5429C15.3125 49.315 15.2951 47.087 15.3125 44.8586C13.8836 44.876 12.4552 44.8586 11.0272 44.8063C9.34886 44.313 8.32108 43.2164 7.94386 41.5164C7.87418 34.3098 7.87418 27.1032 7.94386 19.8966C8.26605 18.5312 9.04994 17.539 10.2956 16.9199C10.7513 16.7546 11.2043 16.6327 11.6543 16.5544ZM19.3888 23.2388C21.5454 23.183 22.5384 24.2274 22.3676 26.3721C21.5767 28.1514 20.3051 28.6214 18.5526 27.7821C17.4393 26.8295 17.2129 25.6981 17.8732 24.3876C18.2764 23.8621 18.7815 23.4791 19.3888 23.2388ZM32.8718 23.2388C35.0285 23.183 36.0214 24.2274 35.8506 26.3721C35.0597 28.1514 33.7881 28.6214 32.0357 27.7821C30.9211 26.8326 30.6946 25.7011 31.3563 24.3876C31.7594 23.8621 32.2646 23.4791 32.8718 23.2388ZM20.643 34.2053C24.545 34.2053 28.4472 34.2053 32.3492 34.2053C31.8454 37.6158 29.877 39.461 26.4439 39.7408C23.5878 39.6014 21.7064 38.1741 20.7998 35.4586C20.679 35.0494 20.6267 34.6317 20.643 34.2053Z" fill="url(#paint2_linear_278_58)"/>
<path opacity="0.96" fill-rule="evenodd" clip-rule="evenodd" d="M2.76973 25.9551C3.95428 25.9551 5.13884 25.9551 6.3234 25.9551C6.3234 29.4365 6.3234 32.918 6.3234 36.3994C5.10351 36.4169 3.88411 36.3994 2.66521 36.3472C2.36412 36.2165 2.1725 35.9903 2.09035 35.6683C2.02067 32.7091 2.02067 29.7498 2.09035 26.7906C2.22379 26.4315 2.45024 26.153 2.76973 25.9551Z" fill="url(#paint3_linear_278_58)"/>
<path opacity="0.943" fill-rule="evenodd" clip-rule="evenodd" d="M47.0866 25.9548C48.2717 25.9373 49.4563 25.9548 50.6403 26.007C50.9806 26.1728 51.2071 26.4339 51.3197 26.7903C51.3894 29.7495 51.3894 32.7088 51.3197 35.668C51.1937 36.1252 50.8975 36.3688 50.4313 36.3991C50.4487 40.7511 50.4313 45.1029 50.379 49.4545C50.3548 49.7927 50.198 50.0538 49.9087 50.2379C44.4036 50.2553 38.899 50.3075 33.3945 50.3945C33.0706 50.9108 32.6177 51.2415 32.0358 51.3868C30.5377 51.4564 29.0395 51.4564 27.5414 51.3868C26.5772 51.1019 26.0546 50.4579 25.9736 49.4545C26.0432 48.2538 26.6704 47.5749 27.855 47.4179C29.144 47.3482 30.4332 47.3482 31.7222 47.4179C32.4819 47.449 33.0393 47.7971 33.3945 48.4623C38.4462 48.5146 43.498 48.532 48.5499 48.5146C48.5499 44.476 48.5499 40.4376 48.5499 36.3991C48.0621 36.3991 47.5744 36.3991 47.0866 36.3991C47.0866 32.9177 47.0866 29.4362 47.0866 25.9548Z" fill="url(#paint4_linear_278_58)"/>
<defs>
<linearGradient id="paint0_linear_278_58" x1="15.856" y1="4.73326" x2="21.999" y2="4.73795" gradientUnits="userSpaceOnUse">
<stop stop-color="#CDCFF4"/>
<stop offset="1" stop-color="#FBD0BF"/>
</linearGradient>
<linearGradient id="paint1_linear_278_58" x1="35.1079" y1="4.70886" x2="41.3337" y2="4.71366" gradientUnits="userSpaceOnUse">
<stop stop-color="#CDCFF4"/>
<stop offset="1" stop-color="#FBD0BF"/>
</linearGradient>
<linearGradient id="paint2_linear_278_58" x1="22.0102" y1="25.2223" x2="45.1165" y2="25.2477" gradientUnits="userSpaceOnUse">
<stop stop-color="#CDCFF4"/>
<stop offset="1" stop-color="#FBD0BF"/>
</linearGradient>
<linearGradient id="paint3_linear_278_58" x1="3.64603" y1="28.5155" x2="6.27759" y2="28.5167" gradientUnits="userSpaceOnUse">
<stop stop-color="#CDCFF4"/>
<stop offset="1" stop-color="#FBD0BF"/>
</linearGradient>
<linearGradient id="paint4_linear_278_58" x1="35.5037" y1="32.1935" x2="51.1004" y2="32.2096" gradientUnits="userSpaceOnUse">
<stop stop-color="#CDCFF4"/>
<stop offset="1" stop-color="#FBD0BF"/>
</linearGradient>
</defs>
</svg>
