<svg width="1901" height="5365" viewBox="0 0 1901 5365" fill="none" xmlns="http://www.w3.org/2000/svg">
<path d="M164 474C165.657 474 167 472.657 167 471C167 469.343 165.657 468 164 468C162.343 468 161 469.343 161 471C161 472.657 162.343 474 164 474Z" fill="#D9D9D9" fill-opacity="0.1"/>
<path d="M486 396C487.657 396 489 394.657 489 393C489 391.343 487.657 390 486 390C484.343 390 483 391.343 483 393C483 394.657 484.343 396 486 396Z" fill="#D9D9D9" fill-opacity="0.1"/>
<path d="M1643 226C1644.66 226 1646 224.657 1646 223C1646 221.343 1644.66 220 1643 220C1641.34 220 1640 221.343 1640 223C1640 224.657 1641.34 226 1643 226Z" fill="#D9D9D9" fill-opacity="0.1"/>
<path d="M1233 698C1234.66 698 1236 696.657 1236 695C1236 693.343 1234.66 692 1233 692C1231.34 692 1230 693.343 1230 695C1230 696.657 1231.34 698 1233 698Z" fill="#D9D9D9" fill-opacity="0.1"/>
<path d="M1729 816C1730.66 816 1732 814.657 1732 813C1732 811.343 1730.66 810 1729 810C1727.34 810 1726 811.343 1726 813C1726 814.657 1727.34 816 1729 816Z" fill="#D9D9D9" fill-opacity="0.1"/>
<path d="M316 973C317.657 973 319 971.657 319 970C319 968.343 317.657 967 316 967C314.343 967 313 968.343 313 970C313 971.657 314.343 973 316 973Z" fill="#D9D9D9" fill-opacity="0.1"/>
<path d="M1387.51 393.958C1386.69 393.958 1386.02 392.932 1386.02 391.667C1386.02 390.402 1386.69 389.376 1387.51 389.376C1388.33 389.376 1389 390.402 1389 391.667C1389 392.932 1388.33 393.958 1387.51 393.958Z" fill="#D9D9D9" fill-opacity="0.2"/>
<path d="M1227.64 334.396C1226.82 334.396 1226.15 333.37 1226.15 332.105C1226.15 330.84 1226.82 329.814 1227.64 329.814C1228.46 329.814 1229.13 330.84 1229.13 332.105C1229.13 333.37 1228.46 334.396 1227.64 334.396Z" fill="#D9D9D9" fill-opacity="0.2"/>
<path d="M653.188 204.582C652.366 204.582 651.699 203.556 651.699 202.291C651.699 201.026 652.366 200 653.188 200C654.011 200 654.678 201.026 654.678 202.291C654.678 203.556 654.011 204.582 653.188 204.582Z" fill="#D9D9D9" fill-opacity="0.2"/>
<path d="M856.752 565.006C855.93 565.006 855.263 563.981 855.263 562.716C855.263 561.45 855.93 560.425 856.752 560.425C857.575 560.425 858.242 561.45 858.242 562.716C858.242 563.981 857.575 565.006 856.752 565.006Z" fill="#D9D9D9" fill-opacity="0.2"/>
<path d="M610.49 655.113C609.667 655.113 609 654.087 609 652.822C609 651.557 609.667 650.531 610.49 650.531C611.312 650.531 611.979 651.557 611.979 652.822C611.979 654.087 611.312 655.113 610.49 655.113Z" fill="#D9D9D9" fill-opacity="0.2"/>
<path d="M1312.04 775C1311.22 775 1310.55 773.974 1310.55 772.709C1310.55 771.444 1311.22 770.418 1312.04 770.418C1312.86 770.418 1313.53 771.444 1313.53 772.709C1313.53 773.974 1312.86 775 1312.04 775Z" fill="#D9D9D9" fill-opacity="0.2"/>
<path d="M177 208C178.657 208 180 206.657 180 205C180 203.343 178.657 202 177 202C175.343 202 174 203.343 174 205C174 206.657 175.343 208 177 208Z" fill="#D9D9D9" fill-opacity="0.1"/>
<path d="M499 130C500.657 130 502 128.657 502 127C502 125.343 500.657 124 499 124C497.343 124 496 125.343 496 127C496 128.657 497.343 130 499 130Z" fill="#D9D9D9" fill-opacity="0.1"/>
<path d="M1246 432C1247.66 432 1249 430.657 1249 429C1249 427.343 1247.66 426 1246 426C1244.34 426 1243 427.343 1243 429C1243 430.657 1244.34 432 1246 432Z" fill="#D9D9D9" fill-opacity="0.1"/>
<path d="M1742 550C1743.66 550 1745 548.657 1745 547C1745 545.343 1743.66 544 1742 544C1740.34 544 1739 545.343 1739 547C1739 548.657 1740.34 550 1742 550Z" fill="#D9D9D9" fill-opacity="0.1"/>
<path d="M329 707C330.657 707 332 705.657 332 704C332 702.343 330.657 701 329 701C327.343 701 326 702.343 326 704C326 705.657 327.343 707 329 707Z" fill="#D9D9D9" fill-opacity="0.1"/>
<path d="M720.49 863.958C721.313 863.958 721.979 862.932 721.979 861.667C721.979 860.402 721.313 859.376 720.49 859.376C719.667 859.376 719 860.402 719 861.667C719 862.932 719.667 863.958 720.49 863.958Z" fill="#D9D9D9" fill-opacity="0.2"/>
<path d="M880.363 804.396C881.186 804.396 881.853 803.37 881.853 802.105C881.853 800.84 881.186 799.814 880.363 799.814C879.54 799.814 878.874 800.84 878.874 802.105C878.874 803.37 879.54 804.396 880.363 804.396Z" fill="#D9D9D9" fill-opacity="0.2"/>
<path d="M1454.81 674.582C1455.63 674.582 1456.3 673.556 1456.3 672.291C1456.3 671.026 1455.63 670 1454.81 670C1453.99 670 1453.32 671.026 1453.32 672.291C1453.32 673.556 1453.99 674.582 1454.81 674.582Z" fill="#D9D9D9" fill-opacity="0.2"/>
<path d="M1251.25 1035.01C1252.07 1035.01 1252.74 1033.99 1252.74 1032.72C1252.74 1031.45 1252.07 1030.43 1251.25 1030.43C1250.43 1030.43 1249.76 1031.45 1249.76 1032.72C1249.76 1033.99 1250.43 1035.01 1251.25 1035.01Z" fill="#D9D9D9" fill-opacity="0.2"/>
<path d="M1497.51 1125.11C1498.33 1125.11 1499 1124.09 1499 1122.82C1499 1121.55 1498.33 1120.53 1497.51 1120.53C1496.69 1120.53 1496.02 1121.55 1496.02 1122.82C1496.02 1124.09 1496.69 1125.11 1497.51 1125.11Z" fill="#D9D9D9" fill-opacity="0.2"/>
<path d="M795.957 1245C796.78 1245 797.446 1243.98 797.446 1242.71C797.446 1241.44 796.78 1240.42 795.957 1240.42C795.134 1240.42 794.468 1241.44 794.468 1242.71C794.468 1243.98 795.134 1245 795.957 1245Z" fill="#D9D9D9" fill-opacity="0.2"/>
<path d="M118 1774C119.657 1774 121 1772.66 121 1771C121 1769.34 119.657 1768 118 1768C116.343 1768 115 1769.34 115 1771C115 1772.66 116.343 1774 118 1774Z" fill="#D9D9D9" fill-opacity="0.1"/>
<path d="M440 1696C441.657 1696 443 1694.66 443 1693C443 1691.34 441.657 1690 440 1690C438.343 1690 437 1691.34 437 1693C437 1694.66 438.343 1696 440 1696Z" fill="#D9D9D9" fill-opacity="0.1"/>
<path d="M1597 1526C1598.66 1526 1600 1524.66 1600 1523C1600 1521.34 1598.66 1520 1597 1520C1595.34 1520 1594 1521.34 1594 1523C1594 1524.66 1595.34 1526 1597 1526Z" fill="#D9D9D9" fill-opacity="0.1"/>
<path d="M1187 1998C1188.66 1998 1190 1996.66 1190 1995C1190 1993.34 1188.66 1992 1187 1992C1185.34 1992 1184 1993.34 1184 1995C1184 1996.66 1185.34 1998 1187 1998Z" fill="#D9D9D9" fill-opacity="0.1"/>
<path d="M1683 2116C1684.66 2116 1686 2114.66 1686 2113C1686 2111.34 1684.66 2110 1683 2110C1681.34 2110 1680 2111.34 1680 2113C1680 2114.66 1681.34 2116 1683 2116Z" fill="#D9D9D9" fill-opacity="0.1"/>
<path d="M270 2273C271.657 2273 273 2271.66 273 2270C273 2268.34 271.657 2267 270 2267C268.343 2267 267 2268.34 267 2270C267 2271.66 268.343 2273 270 2273Z" fill="#D9D9D9" fill-opacity="0.1"/>
<path d="M1341.51 1693.96C1340.69 1693.96 1340.02 1692.94 1340.02 1691.67C1340.02 1690.41 1340.69 1689.38 1341.51 1689.38C1342.33 1689.38 1343 1690.41 1343 1691.67C1343 1692.94 1342.33 1693.96 1341.51 1693.96Z" fill="#D9D9D9" fill-opacity="0.2"/>
<path d="M1181.64 1634.39C1180.82 1634.39 1180.15 1633.37 1180.15 1632.1C1180.15 1630.84 1180.82 1629.81 1181.64 1629.81C1182.46 1629.81 1183.13 1630.84 1183.13 1632.1C1183.13 1633.37 1182.46 1634.39 1181.64 1634.39Z" fill="#D9D9D9" fill-opacity="0.2"/>
<path d="M607.188 1504.58C606.366 1504.58 605.699 1503.56 605.699 1502.29C605.699 1501.03 606.366 1500 607.188 1500C608.011 1500 608.678 1501.03 608.678 1502.29C608.678 1503.56 608.011 1504.58 607.188 1504.58Z" fill="#D9D9D9" fill-opacity="0.2"/>
<path d="M810.752 1865C809.93 1865 809.263 1863.98 809.263 1862.71C809.263 1861.45 809.93 1860.42 810.752 1860.42C811.575 1860.42 812.242 1861.45 812.242 1862.71C812.242 1863.98 811.575 1865 810.752 1865Z" fill="#D9D9D9" fill-opacity="0.2"/>
<path d="M564.49 1955.11C563.667 1955.11 563 1954.09 563 1952.82C563 1951.56 563.667 1950.53 564.49 1950.53C565.312 1950.53 565.979 1951.56 565.979 1952.82C565.979 1954.09 565.312 1955.11 564.49 1955.11Z" fill="#D9D9D9" fill-opacity="0.2"/>
<path d="M1266.04 2075C1265.22 2075 1264.55 2073.98 1264.55 2072.71C1264.55 2071.45 1265.22 2070.42 1266.04 2070.42C1266.86 2070.42 1267.53 2071.45 1267.53 2072.71C1267.53 2073.98 1266.86 2075 1266.04 2075Z" fill="#D9D9D9" fill-opacity="0.2"/>
<path d="M131 1508C132.657 1508 134 1506.66 134 1505C134 1503.34 132.657 1502 131 1502C129.343 1502 128 1503.34 128 1505C128 1506.66 129.343 1508 131 1508Z" fill="#D9D9D9" fill-opacity="0.1"/>
<path d="M453 1430C454.657 1430 456 1428.66 456 1427C456 1425.34 454.657 1424 453 1424C451.343 1424 450 1425.34 450 1427C450 1428.66 451.343 1430 453 1430Z" fill="#D9D9D9" fill-opacity="0.1"/>
<path d="M1610 1260C1611.66 1260 1613 1258.66 1613 1257C1613 1255.34 1611.66 1254 1610 1254C1608.34 1254 1607 1255.34 1607 1257C1607 1258.66 1608.34 1260 1610 1260Z" fill="#D9D9D9" fill-opacity="0.1"/>
<path d="M1200 1732C1201.66 1732 1203 1730.66 1203 1729C1203 1727.34 1201.66 1726 1200 1726C1198.34 1726 1197 1727.34 1197 1729C1197 1730.66 1198.34 1732 1200 1732Z" fill="#D9D9D9" fill-opacity="0.1"/>
<path d="M1696 1850C1697.66 1850 1699 1848.66 1699 1847C1699 1845.34 1697.66 1844 1696 1844C1694.34 1844 1693 1845.34 1693 1847C1693 1848.66 1694.34 1850 1696 1850Z" fill="#D9D9D9" fill-opacity="0.1"/>
<path d="M283 2007C284.657 2007 286 2005.66 286 2004C286 2002.34 284.657 2001 283 2001C281.343 2001 280 2002.34 280 2004C280 2005.66 281.343 2007 283 2007Z" fill="#D9D9D9" fill-opacity="0.1"/>
<path d="M237 2797C238.657 2797 240 2795.66 240 2794C240 2792.34 238.657 2791 237 2791C235.343 2791 234 2792.34 234 2794C234 2795.66 235.343 2797 237 2797Z" fill="#D9D9D9" fill-opacity="0.1"/>
<path d="M559 2719C560.657 2719 562 2717.66 562 2716C562 2714.34 560.657 2713 559 2713C557.343 2713 556 2714.34 556 2716C556 2717.66 557.343 2719 559 2719Z" fill="#D9D9D9" fill-opacity="0.1"/>
<path d="M1716 2549C1717.66 2549 1719 2547.66 1719 2546C1719 2544.34 1717.66 2543 1716 2543C1714.34 2543 1713 2544.34 1713 2546C1713 2547.66 1714.34 2549 1716 2549Z" fill="#D9D9D9" fill-opacity="0.1"/>
<path d="M1306 3021C1307.66 3021 1309 3019.66 1309 3018C1309 3016.34 1307.66 3015 1306 3015C1304.34 3015 1303 3016.34 1303 3018C1303 3019.66 1304.34 3021 1306 3021Z" fill="#D9D9D9" fill-opacity="0.1"/>
<path d="M1802 3139C1803.66 3139 1805 3137.66 1805 3136C1805 3134.34 1803.66 3133 1802 3133C1800.34 3133 1799 3134.34 1799 3136C1799 3137.66 1800.34 3139 1802 3139Z" fill="#D9D9D9" fill-opacity="0.1"/>
<path d="M389 3296C390.657 3296 392 3294.66 392 3293C392 3291.34 390.657 3290 389 3290C387.343 3290 386 3291.34 386 3293C386 3294.66 387.343 3296 389 3296Z" fill="#D9D9D9" fill-opacity="0.1"/>
<path d="M674.49 2163.96C675.313 2163.96 675.979 2162.94 675.979 2161.67C675.979 2160.4 675.313 2159.38 674.49 2159.38C673.667 2159.38 673 2160.4 673 2161.67C673 2162.94 673.667 2163.96 674.49 2163.96Z" fill="#D9D9D9" fill-opacity="0.2"/>
<path d="M834.363 2104.39C835.186 2104.39 835.853 2103.37 835.853 2102.1C835.853 2100.83 835.186 2099.81 834.363 2099.81C833.54 2099.81 832.874 2100.83 832.874 2102.1C832.874 2103.37 833.54 2104.39 834.363 2104.39Z" fill="#D9D9D9" fill-opacity="0.2"/>
<path d="M1408.81 1974.58C1409.63 1974.58 1410.3 1973.56 1410.3 1972.29C1410.3 1971.02 1409.63 1970 1408.81 1970C1407.99 1970 1407.32 1971.02 1407.32 1972.29C1407.32 1973.56 1407.99 1974.58 1408.81 1974.58Z" fill="#D9D9D9" fill-opacity="0.2"/>
<path d="M1205.25 2335.01C1206.07 2335.01 1206.74 2333.99 1206.74 2332.72C1206.74 2331.45 1206.07 2330.43 1205.25 2330.43C1204.43 2330.43 1203.76 2331.45 1203.76 2332.72C1203.76 2333.99 1204.43 2335.01 1205.25 2335.01Z" fill="#D9D9D9" fill-opacity="0.2"/>
<path d="M1451.51 2425.11C1452.33 2425.11 1453 2424.09 1453 2422.82C1453 2421.55 1452.33 2420.53 1451.51 2420.53C1450.69 2420.53 1450.02 2421.55 1450.02 2422.82C1450.02 2424.09 1450.69 2425.11 1451.51 2425.11Z" fill="#D9D9D9" fill-opacity="0.2"/>
<path d="M749.957 2545C750.78 2545 751.446 2543.98 751.446 2542.71C751.446 2541.44 750.78 2540.42 749.957 2540.42C749.134 2540.42 748.468 2541.44 748.468 2542.71C748.468 2543.98 749.134 2545 749.957 2545Z" fill="#D9D9D9" fill-opacity="0.2"/>
<path d="M101.363 2963.39C102.186 2963.39 102.853 2962.37 102.853 2961.1C102.853 2959.83 102.186 2958.81 101.363 2958.81C100.54 2958.81 99.8735 2959.83 99.8735 2961.1C99.8735 2962.37 100.54 2963.39 101.363 2963.39Z" fill="#D9D9D9" fill-opacity="0.2"/>
<path d="M675.812 2833.58C676.635 2833.58 677.302 2832.56 677.302 2831.29C677.302 2830.02 676.635 2829 675.812 2829C674.989 2829 674.323 2830.02 674.323 2831.29C674.323 2832.56 674.989 2833.58 675.812 2833.58Z" fill="#D9D9D9" fill-opacity="0.2"/>
<path d="M472.247 3194.01C473.07 3194.01 473.737 3192.99 473.737 3191.72C473.737 3190.45 473.07 3189.43 472.247 3189.43C471.424 3189.43 470.758 3190.45 470.758 3191.72C470.758 3192.99 471.424 3194.01 472.247 3194.01Z" fill="#D9D9D9" fill-opacity="0.2"/>
<path d="M718.51 3284.11C719.333 3284.11 720 3283.09 720 3281.82C720 3280.55 719.333 3279.53 718.51 3279.53C717.687 3279.53 717.021 3280.55 717.021 3281.82C717.021 3283.09 717.687 3284.11 718.51 3284.11Z" fill="#D9D9D9" fill-opacity="0.2"/>
<path d="M16.9573 3404C17.7799 3404 18.4468 3402.98 18.4468 3401.71C18.4468 3400.44 17.7799 3399.42 16.9573 3399.42C16.1346 3399.42 15.4678 3400.44 15.4678 3401.71C15.4678 3402.98 16.1346 3404 16.9573 3404Z" fill="#D9D9D9" fill-opacity="0.2"/>
<path d="M920.49 2859.96C921.313 2859.96 921.979 2858.94 921.979 2857.67C921.979 2856.4 921.313 2855.38 920.49 2855.38C919.667 2855.38 919 2856.4 919 2857.67C919 2858.94 919.667 2859.96 920.49 2859.96Z" fill="#D9D9D9" fill-opacity="0.2"/>
<path d="M1080.36 2800.39C1081.18 2800.39 1081.85 2799.37 1081.85 2798.1C1081.85 2796.83 1081.18 2795.81 1080.36 2795.81C1079.54 2795.81 1078.87 2796.83 1078.87 2798.1C1078.87 2799.37 1079.54 2800.39 1080.36 2800.39Z" fill="#D9D9D9" fill-opacity="0.2"/>
<path d="M1654.81 2670.58C1655.63 2670.58 1656.3 2669.56 1656.3 2668.29C1656.3 2667.02 1655.63 2666 1654.81 2666C1653.99 2666 1653.32 2667.02 1653.32 2668.29C1653.32 2669.56 1653.99 2670.58 1654.81 2670.58Z" fill="#D9D9D9" fill-opacity="0.2"/>
<path d="M1451.25 3031.01C1452.07 3031.01 1452.74 3029.99 1452.74 3028.72C1452.74 3027.45 1452.07 3026.43 1451.25 3026.43C1450.43 3026.43 1449.76 3027.45 1449.76 3028.72C1449.76 3029.99 1450.43 3031.01 1451.25 3031.01Z" fill="#D9D9D9" fill-opacity="0.2"/>
<path d="M1697.51 3121.11C1698.33 3121.11 1699 3120.09 1699 3118.82C1699 3117.55 1698.33 3116.53 1697.51 3116.53C1696.69 3116.53 1696.02 3117.55 1696.02 3118.82C1696.02 3120.09 1696.69 3121.11 1697.51 3121.11Z" fill="#D9D9D9" fill-opacity="0.2"/>
<path d="M995.957 3241C996.78 3241 997.446 3239.98 997.446 3238.71C997.446 3237.44 996.78 3236.42 995.957 3236.42C995.134 3236.42 994.468 3237.44 994.468 3238.71C994.468 3239.98 995.134 3241 995.957 3241Z" fill="#D9D9D9" fill-opacity="0.2"/>
<path d="M260 3938C261.657 3938 263 3936.66 263 3935C263 3933.34 261.657 3932 260 3932C258.343 3932 257 3933.34 257 3935C257 3936.66 258.343 3938 260 3938Z" fill="#D9D9D9" fill-opacity="0.1"/>
<path d="M582 3860C583.657 3860 585 3858.66 585 3857C585 3855.34 583.657 3854 582 3854C580.343 3854 579 3855.34 579 3857C579 3858.66 580.343 3860 582 3860Z" fill="#D9D9D9" fill-opacity="0.1"/>
<path d="M1739 3690C1740.66 3690 1742 3688.66 1742 3687C1742 3685.34 1740.66 3684 1739 3684C1737.34 3684 1736 3685.34 1736 3687C1736 3688.66 1737.34 3690 1739 3690Z" fill="#D9D9D9" fill-opacity="0.1"/>
<path d="M1329 4162C1330.66 4162 1332 4160.66 1332 4159C1332 4157.34 1330.66 4156 1329 4156C1327.34 4156 1326 4157.34 1326 4159C1326 4160.66 1327.34 4162 1329 4162Z" fill="#D9D9D9" fill-opacity="0.1"/>
<path d="M1825 4280C1826.66 4280 1828 4278.66 1828 4277C1828 4275.34 1826.66 4274 1825 4274C1823.34 4274 1822 4275.34 1822 4277C1822 4278.66 1823.34 4280 1825 4280Z" fill="#D9D9D9" fill-opacity="0.1"/>
<path d="M412 4437C413.657 4437 415 4435.66 415 4434C415 4432.34 413.657 4431 412 4431C410.343 4431 409 4432.34 409 4434C409 4435.66 410.343 4437 412 4437Z" fill="#D9D9D9" fill-opacity="0.1"/>
<path d="M1483.51 3857.96C1482.69 3857.96 1482.02 3856.94 1482.02 3855.67C1482.02 3854.41 1482.69 3853.38 1483.51 3853.38C1484.33 3853.38 1485 3854.41 1485 3855.67C1485 3856.94 1484.33 3857.96 1483.51 3857.96Z" fill="#D9D9D9" fill-opacity="0.2"/>
<path d="M1323.64 3798.39C1322.82 3798.39 1322.15 3797.37 1322.15 3796.1C1322.15 3794.84 1322.82 3793.81 1323.64 3793.81C1324.46 3793.81 1325.13 3794.84 1325.13 3796.1C1325.13 3797.37 1324.46 3798.39 1323.64 3798.39Z" fill="#D9D9D9" fill-opacity="0.2"/>
<path d="M749.188 3668.58C748.366 3668.58 747.699 3667.56 747.699 3666.29C747.699 3665.03 748.366 3664 749.188 3664C750.011 3664 750.678 3665.03 750.678 3666.29C750.678 3667.56 750.011 3668.58 749.188 3668.58Z" fill="#D9D9D9" fill-opacity="0.2"/>
<path d="M952.752 4029C951.93 4029 951.263 4027.98 951.263 4026.71C951.263 4025.45 951.93 4024.42 952.752 4024.42C953.575 4024.42 954.242 4025.45 954.242 4026.71C954.242 4027.98 953.575 4029 952.752 4029Z" fill="#D9D9D9" fill-opacity="0.2"/>
<path d="M706.49 4119.11C705.667 4119.11 705 4118.09 705 4116.82C705 4115.56 705.667 4114.53 706.49 4114.53C707.312 4114.53 707.979 4115.56 707.979 4116.82C707.979 4118.09 707.312 4119.11 706.49 4119.11Z" fill="#D9D9D9" fill-opacity="0.2"/>
<path d="M1408.04 4239C1407.22 4239 1406.55 4237.98 1406.55 4236.71C1406.55 4235.45 1407.22 4234.42 1408.04 4234.42C1408.86 4234.42 1409.53 4235.45 1409.53 4236.71C1409.53 4237.98 1408.86 4239 1408.04 4239Z" fill="#D9D9D9" fill-opacity="0.2"/>
<path d="M273 3672C274.657 3672 276 3670.66 276 3669C276 3667.34 274.657 3666 273 3666C271.343 3666 270 3667.34 270 3669C270 3670.66 271.343 3672 273 3672Z" fill="#D9D9D9" fill-opacity="0.1"/>
<path d="M595 3594C596.657 3594 598 3592.66 598 3591C598 3589.34 596.657 3588 595 3588C593.343 3588 592 3589.34 592 3591C592 3592.66 593.343 3594 595 3594Z" fill="#D9D9D9" fill-opacity="0.1"/>
<path d="M1752 3424C1753.66 3424 1755 3422.66 1755 3421C1755 3419.34 1753.66 3418 1752 3418C1750.34 3418 1749 3419.34 1749 3421C1749 3422.66 1750.34 3424 1752 3424Z" fill="#D9D9D9" fill-opacity="0.1"/>
<path d="M1342 3896C1343.66 3896 1345 3894.66 1345 3893C1345 3891.34 1343.66 3890 1342 3890C1340.34 3890 1339 3891.34 1339 3893C1339 3894.66 1340.34 3896 1342 3896Z" fill="#D9D9D9" fill-opacity="0.1"/>
<path d="M1838 4014C1839.66 4014 1841 4012.66 1841 4011C1841 4009.34 1839.66 4008 1838 4008C1836.34 4008 1835 4009.34 1835 4011C1835 4012.66 1836.34 4014 1838 4014Z" fill="#D9D9D9" fill-opacity="0.1"/>
<path d="M425 4171C426.657 4171 428 4169.66 428 4168C428 4166.34 426.657 4165 425 4165C423.343 4165 422 4166.34 422 4168C422 4169.66 423.343 4171 425 4171Z" fill="#D9D9D9" fill-opacity="0.1"/>
<path d="M816.49 4327.96C817.313 4327.96 817.979 4326.94 817.979 4325.67C817.979 4324.4 817.313 4323.38 816.49 4323.38C815.667 4323.38 815 4324.4 815 4325.67C815 4326.94 815.667 4327.96 816.49 4327.96Z" fill="#D9D9D9" fill-opacity="0.2"/>
<path d="M976.363 4268.39C977.186 4268.39 977.853 4267.37 977.853 4266.1C977.853 4264.83 977.186 4263.81 976.363 4263.81C975.54 4263.81 974.874 4264.83 974.874 4266.1C974.874 4267.37 975.54 4268.39 976.363 4268.39Z" fill="#D9D9D9" fill-opacity="0.2"/>
<path d="M1550.81 4138.58C1551.63 4138.58 1552.3 4137.56 1552.3 4136.29C1552.3 4135.02 1551.63 4134 1550.81 4134C1549.99 4134 1549.32 4135.02 1549.32 4136.29C1549.32 4137.56 1549.99 4138.58 1550.81 4138.58Z" fill="#D9D9D9" fill-opacity="0.2"/>
<path d="M1347.25 4499.01C1348.07 4499.01 1348.74 4497.99 1348.74 4496.72C1348.74 4495.46 1348.07 4494.43 1347.25 4494.43C1346.43 4494.43 1345.76 4495.46 1345.76 4496.72C1345.76 4497.99 1346.43 4499.01 1347.25 4499.01Z" fill="#D9D9D9" fill-opacity="0.2"/>
<path d="M1593.51 4589.11C1594.33 4589.11 1595 4588.09 1595 4586.82C1595 4585.55 1594.33 4584.53 1593.51 4584.53C1592.69 4584.53 1592.02 4585.55 1592.02 4586.82C1592.02 4588.09 1592.69 4589.11 1593.51 4589.11Z" fill="#D9D9D9" fill-opacity="0.2"/>
<path d="M891.957 4709C892.78 4709 893.446 4707.98 893.446 4706.71C893.446 4705.44 892.78 4704.42 891.957 4704.42C891.134 4704.42 890.468 4705.44 890.468 4706.71C890.468 4707.98 891.134 4709 891.957 4709Z" fill="#D9D9D9" fill-opacity="0.2"/>
<path d="M214 5238C215.657 5238 217 5236.66 217 5235C217 5233.34 215.657 5232 214 5232C212.343 5232 211 5233.34 211 5235C211 5236.66 212.343 5238 214 5238Z" fill="#D9D9D9" fill-opacity="0.1"/>
<path d="M536 5160C537.657 5160 539 5158.66 539 5157C539 5155.34 537.657 5154 536 5154C534.343 5154 533 5155.34 533 5157C533 5158.66 534.343 5160 536 5160Z" fill="#D9D9D9" fill-opacity="0.1"/>
<path d="M1693 4990C1694.66 4990 1696 4988.66 1696 4987C1696 4985.34 1694.66 4984 1693 4984C1691.34 4984 1690 4985.34 1690 4987C1690 4988.66 1691.34 4990 1693 4990Z" fill="#D9D9D9" fill-opacity="0.1"/>
<path d="M1437.51 5157.96C1436.69 5157.96 1436.02 5156.94 1436.02 5155.67C1436.02 5154.41 1436.69 5153.38 1437.51 5153.38C1438.33 5153.38 1439 5154.41 1439 5155.67C1439 5156.94 1438.33 5157.96 1437.51 5157.96Z" fill="#D9D9D9" fill-opacity="0.2"/>
<path d="M1277.64 5098.39C1276.82 5098.39 1276.15 5097.37 1276.15 5096.1C1276.15 5094.84 1276.82 5093.81 1277.64 5093.81C1278.46 5093.81 1279.13 5094.84 1279.13 5096.1C1279.13 5097.37 1278.46 5098.39 1277.64 5098.39Z" fill="#D9D9D9" fill-opacity="0.2"/>
<path d="M703.188 4968.58C702.366 4968.58 701.699 4967.56 701.699 4966.29C701.699 4965.03 702.366 4964 703.188 4964C704.011 4964 704.678 4965.03 704.678 4966.29C704.678 4967.56 704.011 4968.58 703.188 4968.58Z" fill="#D9D9D9" fill-opacity="0.2"/>
<path d="M906.752 5329.01C905.93 5329.01 905.263 5327.99 905.263 5326.72C905.263 5325.46 905.93 5324.43 906.752 5324.43C907.575 5324.43 908.242 5325.46 908.242 5326.72C908.242 5327.99 907.575 5329.01 906.752 5329.01Z" fill="#D9D9D9" fill-opacity="0.2"/>
<path d="M227 4972C228.657 4972 230 4970.66 230 4969C230 4967.34 228.657 4966 227 4966C225.343 4966 224 4967.34 224 4969C224 4970.66 225.343 4972 227 4972Z" fill="#D9D9D9" fill-opacity="0.1"/>
<path d="M549 4894C550.657 4894 552 4892.66 552 4891C552 4889.34 550.657 4888 549 4888C547.343 4888 546 4889.34 546 4891C546 4892.66 547.343 4894 549 4894Z" fill="#D9D9D9" fill-opacity="0.1"/>
<path d="M1706 4724C1707.66 4724 1709 4722.66 1709 4721C1709 4719.34 1707.66 4718 1706 4718C1704.34 4718 1703 4719.34 1703 4721C1703 4722.66 1704.34 4724 1706 4724Z" fill="#D9D9D9" fill-opacity="0.1"/>
<path d="M1296 5196C1297.66 5196 1299 5194.66 1299 5193C1299 5191.34 1297.66 5190 1296 5190C1294.34 5190 1293 5191.34 1293 5193C1293 5194.66 1294.34 5196 1296 5196Z" fill="#D9D9D9" fill-opacity="0.1"/>
<path d="M1792 5314C1793.66 5314 1795 5312.66 1795 5311C1795 5309.34 1793.66 5308 1792 5308C1790.34 5308 1789 5309.34 1789 5311C1789 5312.66 1790.34 5314 1792 5314Z" fill="#D9D9D9" fill-opacity="0.1"/>
</svg>
